<svg width="152" height="24" fill="none" xmlns="http://www.w3.org/2000/svg"><path d="M6.548 21.066l4.248-19.394h2.534l1.377 1.655L10.181 23H7.383l-.835-1.934zM5.42 1.672l3.589 19.54L8.086 23H4.849L.322 1.672H5.42zM17.036 21.11l3.56-19.438h5.083L21.152 23H17.93l-.894-1.89zM15.161 1.672l4.35 19.512L18.634 23h-2.798l-4.63-19.702 1.436-1.626h2.52zm50.713 19.394l4.248-19.394h2.534l1.377 1.655L69.507 23h-2.798l-.835-1.934zM64.746 1.672l3.589 19.54L67.412 23h-3.237L59.648 1.672h5.098zM76.362 21.11l3.56-19.438h5.083L80.479 23h-3.223l-.894-1.89zM74.487 1.672l4.35 19.512L77.96 23h-2.798l-4.63-19.702 1.436-1.626h2.52z" fill="#FFA400"/><path d="M35.142 23.293c-1.29 0-2.442-.2-3.457-.6-1.016-.41-1.875-.972-2.579-1.685a7.48 7.48 0 01-1.596-2.461 8.04 8.04 0 01-.542-2.945v-.556c0-1.162.16-2.236.483-3.223a7.515 7.515 0 011.436-2.607c.634-.742 1.43-1.319 2.387-1.729.957-.42 2.07-.63 3.34-.63 1.123 0 2.13.181 3.018.542a6.16 6.16 0 012.256 1.553c.625.674 1.098 1.49 1.42 2.446.333.957.499 2.032.499 3.223v2.007h-12.95v-3.09h8.13v-.382c.01-.527-.083-.976-.278-1.347a1.917 1.917 0 00-.82-.85c-.362-.195-.801-.293-1.319-.293-.537 0-.981.117-1.333.352-.342.234-.61.556-.805.966a5.05 5.05 0 00-.396 1.392 11.399 11.399 0 00-.117 1.67v.556c0 .587.078 1.119.234 1.597.166.479.4.889.703 1.23.313.333.684.591 1.114.777.44.186.937.278 1.494.278a5.48 5.48 0 001.992-.38 3.981 3.981 0 001.685-1.26l2.24 2.666c-.321.459-.78.903-1.376 1.333-.586.43-1.29.781-2.11 1.055-.82.263-1.738.395-2.753.395zM43.857.5h4.937v18.604L48.28 23h-4.424V.5zM58.52 14.9v.307c0 1.201-.122 2.295-.366 3.281-.244.987-.62 1.841-1.128 2.564a5.221 5.221 0 01-1.919 1.655c-.771.39-1.684.586-2.739.586-.957 0-1.777-.205-2.46-.615a5.272 5.272 0 01-1.715-1.729c-.459-.742-.83-1.597-1.113-2.563a23.936 23.936 0 01-.674-3.135v-.366c.166-1.104.39-2.139.674-3.106.283-.976.654-1.83 1.113-2.563.46-.742 1.026-1.319 1.7-1.729.683-.42 1.499-.63 2.446-.63 1.064 0 1.982.2 2.754.601.781.4 1.426.962 1.933 1.685.508.722.884 1.572 1.128 2.548.244.977.366 2.046.366 3.208zm-4.936.307v-.308c0-.576-.034-1.118-.103-1.626a4.85 4.85 0 00-.366-1.347 2.192 2.192 0 00-.747-.923c-.322-.225-.742-.337-1.26-.337-.527 0-.971.088-1.333.264a2.13 2.13 0 00-.85.761c-.204.323-.35.723-.439 1.202a8.007 8.007 0 00-.117 1.596v1.157c-.02.811.054 1.504.22 2.08.166.577.454 1.016.864 1.319.41.303.972.454 1.685.454.527 0 .952-.102 1.274-.308a1.89 1.89 0 00.747-.878c.166-.381.279-.835.337-1.363.059-.527.088-1.108.088-1.743zM92.007 7.15V23h-4.951V7.15h4.95zm-5.244-4.087c0-.703.254-1.279.761-1.728.508-.45 1.167-.674 1.978-.674.81 0 1.47.225 1.978.674.507.45.761 1.025.761 1.728 0 .704-.254 1.28-.761 1.729-.508.45-1.168.674-1.978.674s-1.47-.225-1.978-.674c-.507-.45-.761-1.025-.761-1.729zm21.328 16.128V23H95.815v-3.809h12.276zm-.147-9.375L98.027 23h-3.383v-2.754l9.902-13.096h3.398v2.666zm-1.626-2.666v3.809H94.936V7.15h11.382zm12.437 11.866v-6.534c0-.449-.064-.834-.191-1.157a1.521 1.521 0 00-.6-.747c-.274-.185-.64-.278-1.099-.278-.371 0-.688.063-.952.19a1.31 1.31 0 00-.601.572c-.136.253-.205.576-.205.966h-4.936c0-.732.161-1.41.483-2.036a5.032 5.032 0 011.407-1.655c.615-.469 1.347-.83 2.197-1.084.859-.264 1.816-.396 2.871-.396 1.26 0 2.383.21 3.369.63.996.42 1.782 1.05 2.358 1.89.577.83.865 1.875.865 3.135V19c0 1.035.058 1.821.175 2.358.118.528.284.992.499 1.392V23h-4.952c-.234-.488-.41-1.084-.527-1.787a14.786 14.786 0 01-.161-2.197zm.6-5.699l.03 2.637h-2.183c-.459 0-.849.064-1.172.19a1.971 1.971 0 00-.761.528 2.081 2.081 0 00-.411.732 3.136 3.136 0 00-.117.865c0 .293.069.556.205.79.147.225.342.401.586.528.244.127.518.19.821.19.546 0 1.01-.102 1.391-.307.391-.215.689-.474.894-.777.205-.302.307-.586.307-.85l1.084 2.022c-.195.39-.42.786-.674 1.187-.244.4-.551.771-.922 1.113a4.412 4.412 0 01-1.333.82c-.528.205-1.167.308-1.919.308a6.07 6.07 0 01-2.696-.6 5.007 5.007 0 01-1.948-1.67c-.488-.723-.732-1.553-.732-2.49 0-.821.146-1.553.439-2.198a4.31 4.31 0 011.362-1.64c.606-.45 1.377-.792 2.315-1.026.937-.234 2.041-.352 3.31-.352h2.124zm12.085-2.24V23h-4.936V7.15h4.614l.322 3.926zm4.688-4.044l-.088 4.585a69.34 69.34 0 00-.791-.073 9.769 9.769 0 00-.835-.044c-.576 0-1.074.068-1.494.205a2.52 2.52 0 00-1.025.586 2.3 2.3 0 00-.586.967c-.118.39-.171.845-.162 1.362l-.893-.586c0-1.064.102-2.031.308-2.9.214-.88.517-1.636.908-2.27.39-.645.864-1.138 1.421-1.48a3.435 3.435 0 011.875-.528c.244 0 .483.015.717.044.245.03.459.074.645.132zm10.518 12.334V.5h4.965V23h-4.453l-.512-3.633zm-9.727-4.101v-.308c0-1.201.132-2.295.395-3.281.264-.996.655-1.85 1.172-2.564a5.293 5.293 0 011.934-1.67c.771-.39 1.66-.586 2.666-.586.898 0 1.685.21 2.358.63.674.41 1.25.987 1.729 1.729.478.742.869 1.611 1.172 2.607.302.987.532 2.051.688 3.194v.366a19.357 19.357 0 01-.688 3.047 10.36 10.36 0 01-1.172 2.52c-.479.732-1.06 1.308-1.743 1.728-.674.41-1.465.615-2.373.615-1.006 0-1.895-.2-2.666-.6a5.457 5.457 0 01-1.919-1.685c-.508-.723-.894-1.572-1.158-2.549-.263-.977-.395-2.041-.395-3.193zm4.936-.308v.308c0 .595.04 1.147.118 1.655.078.508.21.957.395 1.348.195.38.449.678.762.893.322.215.718.322 1.186.322.635 0 1.158-.151 1.568-.454.42-.303.727-.732.923-1.289.205-.556.293-1.21.263-1.963v-1.157c.02-.644-.024-1.21-.132-1.7-.107-.497-.278-.912-.512-1.244a2.13 2.13 0 00-.864-.747c-.342-.176-.748-.264-1.216-.264-.459 0-.85.107-1.172.322a2.338 2.338 0 00-.762.909c-.195.38-.337.834-.425 1.362a10.162 10.162 0 00-.132 1.699z" fill="#fff"/></svg>