<svg width="81" height="13" fill="none" xmlns="http://www.w3.org/2000/svg"><path d="M3.492 10.969L5.758.625h1.351l.735.883L5.43 12H3.938l-.446-1.031zM2.891.625l1.914 10.422-.492.953H2.585L.172.625H2.89zm6.195 10.367L10.984.625h2.711L11.281 12H9.562l-.476-1.008zm-1-10.367l2.32 10.406-.469.969H8.445L5.977 1.492l.765-.867h1.344zm27.047 10.344L37.398.625h1.352l.734.883L37.07 12h-1.492l-.445-1.031zM34.53.625l1.914 10.422-.492.953h-1.726L31.813.625h2.718zm6.196 10.367L42.625.625h2.71L42.923 12h-1.719l-.476-1.008zm-1-10.367l2.32 10.406-.469.969h-1.492L37.617 1.492l.766-.867h1.344z" fill="#FFA400"/><path d="M18.742 12.156c-.687 0-1.302-.107-1.844-.32-.541-.219-1-.518-1.375-.899a3.988 3.988 0 01-.851-1.312 4.289 4.289 0 01-.29-1.57v-.297c0-.62.087-1.193.259-1.719.171-.531.427-.995.765-1.39a3.419 3.419 0 011.274-.922c.51-.224 1.104-.336 1.78-.336.6 0 1.136.096 1.61.289.474.192.875.468 1.203.828.334.36.586.794.758 1.304.177.51.266 1.084.266 1.72v1.07H15.39V6.953h4.336V6.75a1.466 1.466 0 00-.149-.719 1.022 1.022 0 00-.437-.453 1.461 1.461 0 00-.703-.156c-.287 0-.524.062-.711.187a1.272 1.272 0 00-.43.516c-.1.214-.17.46-.211.742a6.087 6.087 0 00-.063.89v.298c0 .312.042.596.125.851.089.255.214.474.375.656.167.178.365.316.594.415.235.098.5.148.797.148.36 0 .714-.068 1.063-.203.349-.136.648-.36.898-.672l1.195 1.422a3.099 3.099 0 01-.734.71c-.313.23-.688.418-1.125.563-.438.14-.927.211-1.469.211zM23.391 0h2.632v9.922L25.75 12h-2.36V0zm7.82 7.68v.164c0 .64-.065 1.224-.195 1.75s-.331.982-.602 1.367c-.27.38-.612.674-1.023.883-.412.208-.899.312-1.461.312-.51 0-.948-.11-1.313-.328a2.811 2.811 0 01-.914-.922 5.553 5.553 0 01-.594-1.367c-.15-.52-.27-1.078-.359-1.672v-.195a12.5 12.5 0 01.36-1.656c.15-.521.348-.977.593-1.368.245-.395.547-.703.906-.921.365-.224.8-.336 1.305-.336.568 0 1.057.106 1.469.32.416.213.76.513 1.031.898.27.386.471.839.602 1.36.13.52.195 1.09.195 1.71zm-2.633.164V7.68a6.5 6.5 0 00-.055-.867 2.584 2.584 0 00-.195-.72 1.169 1.169 0 00-.398-.491c-.172-.12-.396-.18-.672-.18a1.63 1.63 0 00-.711.14c-.188.094-.339.23-.453.407-.11.172-.188.385-.235.64a4.28 4.28 0 00-.062.852v.617c-.01.432.029.802.117 1.11.089.307.242.541.461.703.219.161.518.242.898.242.282 0 .508-.055.68-.164.177-.11.31-.266.399-.469.088-.203.148-.445.18-.727.03-.28.046-.59.046-.93zM49.07 3.547V12h-2.64V3.547h2.64zm-2.797-2.18c0-.375.136-.682.407-.922.27-.24.622-.36 1.054-.36.433 0 .784.12 1.055.36.27.24.406.547.406.922s-.135.682-.406.922c-.27.24-.622.36-1.055.36-.432 0-.784-.12-1.054-.36a1.175 1.175 0 01-.407-.922zM57.648 9.97V12h-6.546V9.969h6.546zm-.078-5L52.281 12h-1.804v-1.469l5.28-6.984h1.813v1.422zm-.867-1.422v2.031h-6.07V3.547h6.07zm6.633 6.328V6.391c0-.24-.034-.446-.102-.618a.814.814 0 00-.32-.398c-.146-.099-.341-.148-.586-.148a1.16 1.16 0 00-.508.101.699.699 0 00-.32.305 1.08 1.08 0 00-.11.515h-2.632c0-.39.086-.752.258-1.085a2.68 2.68 0 01.75-.883c.328-.25.718-.443 1.172-.578a5.187 5.187 0 011.53-.211c.673 0 1.272.112 1.798.336.53.224.95.56 1.257 1.007.308.443.461 1 .461 1.672v3.461c0 .552.032.971.094 1.258.063.281.151.529.266.742V12h-2.64a3.564 3.564 0 01-.282-.953 7.855 7.855 0 01-.086-1.172zm.32-3.04l.016 1.407h-1.164c-.245 0-.453.034-.625.102a1.05 1.05 0 00-.625.672c-.042.145-.063.3-.063.46a.82.82 0 00.11.422c.078.12.182.214.312.282.13.067.276.101.438.101.291 0 .539-.054.742-.164a1.34 1.34 0 00.476-.414.813.813 0 00.164-.453l.579 1.078c-.105.209-.224.42-.36.633-.13.213-.294.411-.492.594a2.35 2.35 0 01-.71.437c-.282.11-.623.164-1.024.164-.521 0-1-.107-1.438-.32a2.663 2.663 0 01-1.039-.89 2.316 2.316 0 01-.39-1.329c0-.437.078-.828.234-1.172.161-.343.404-.635.726-.875.323-.24.735-.422 1.235-.547.5-.125 1.088-.187 1.765-.187h1.133zm6.446-1.194V12h-2.633V3.547h2.46l.173 2.094zm2.5-2.157l-.047 2.446a38.35 38.35 0 00-.422-.04 5.218 5.218 0 00-.445-.023c-.308 0-.573.037-.797.11a1.346 1.346 0 00-.547.312c-.14.135-.245.307-.313.516-.062.208-.09.45-.086.726l-.476-.312c0-.568.054-1.084.164-1.547.114-.469.276-.873.484-1.211a2.3 2.3 0 01.758-.79c.297-.187.63-.28 1-.28.13 0 .258.007.383.023.13.016.245.04.344.07zm5.609 6.579V0h2.648v12h-2.375l-.273-1.938zm-5.188-2.188v-.164c0-.64.07-1.224.211-1.75.141-.531.35-.987.625-1.367a2.8 2.8 0 011.032-.89c.411-.21.885-.313 1.421-.313.48 0 .899.112 1.258.336.36.218.667.526.922.921.255.396.464.86.625 1.391.162.526.284 1.094.367 1.703v.196a10.309 10.309 0 01-.367 1.625c-.161.505-.37.953-.625 1.343s-.565.698-.93.922c-.359.219-.78.328-1.265.328-.537 0-1.01-.107-1.422-.32a2.914 2.914 0 01-1.023-.899 4.282 4.282 0 01-.618-1.359 6.52 6.52 0 01-.21-1.703zm2.633-.164v.164c0 .318.021.612.063.883.041.27.112.51.21.719.105.203.24.362.407.476.172.115.383.172.633.172.338 0 .617-.08.836-.242a1.38 1.38 0 00.492-.688c.11-.297.156-.646.14-1.047v-.617a3.723 3.723 0 00-.07-.906 1.797 1.797 0 00-.273-.664 1.133 1.133 0 00-.461-.399 1.4 1.4 0 00-.649-.14 1.1 1.1 0 00-.625.172 1.25 1.25 0 00-.406.484c-.104.203-.18.445-.226.727-.047.276-.07.578-.07.906z" fill="#fff"/></svg>